<svg width="1512" height="982" viewBox="0 0 1512 982" fill="none" xmlns="http://www.w3.org/2000/svg">
<g clip-path="url(#clip0_145_28)">
<path d="M1512 0H0V982H1512V0Z" fill="white"/>
<path d="M-564.443 160.739C-564.443 160.739 -62.9968 53.7554 42.6302 397.478C148.257 741.2 342.621 491.514 649.704 634.217C956.786 776.92 897.544 549.348 1256.78 870.956C1616.01 1192.56 1491.26 924.84 1863.85 1107.7L2084.77 1193.84L927.147 2348.96L-1722.06 1315.85L-564.443 160.739Z" fill="#818181"/>
<path d="M-379.545 -78.7406C-379.545 -78.7406 35.7259 -99.4817 227.923 158.18C420.121 415.842 643.195 137.439 835.392 395.101C1027.59 652.763 1250.66 374.36 1442.86 632.022C1635.06 889.684 1858.13 611.281 2050.33 868.943L2271.39 955.159L3467.37 -238.375L816.435 -1272.27L-379.545 -78.7406Z" fill="#D9D9D9"/>
</g>
<defs>
<clipPath id="clip0_145_28">
<rect width="1512" height="982" fill="white"/>
</clipPath>
</defs>
</svg>
